<?xml version="1.0" encoding="utf-8"?>
<!-- Generator: Adobe Illustrator 17.0.2, SVG Export Plug-In . SVG Version: 6.00 Build 0)  -->
<!DOCTYPE svg PUBLIC "-//W3C//DTD SVG 1.1//EN" "http://www.w3.org/Graphics/SVG/1.1/DTD/svg11.dtd">
<svg version="1.1" id="Layer_1" xmlns="http://www.w3.org/2000/svg" xmlns:xlink="http://www.w3.org/1999/xlink" x="0px" y="0px"
	 width="611px" height="155.62px" viewBox="0 0 611 155.62" enable-background="new 0 0 611 155.62" xml:space="preserve">
<g>
	<polygon fill="#2E2E2E" points="13.849,86.108 33.549,86.108 33.549,147.451 13.849,147.451 	"/>
	<polygon fill="#2E2E2E" points="43.917,96.476 61.888,96.476 61.888,134.84 43.917,134.84 	"/>
	<polygon fill="#2E2E2E" points="75.193,71.594 96.964,71.594 96.964,146.937 75.193,146.937 	"/>
	<polygon fill="#2E2E2E" points="110.615,76.432 126.689,76.432 126.689,147.105 110.615,147.105 	"/>
	<polygon fill="#2E2E2E" points="116.494,74.877 126.689,74.877 126.689,147.105 116.494,147.105 	"/>
	<polygon fill="#2E2E2E" points="163.493,78.849 172.653,78.849 172.653,144.168 163.493,144.168 	"/>
	<polygon fill="#2E2E2E" points="177.144,74.531 190.278,74.531 190.278,142.787 177.144,142.787 	"/>
	<polygon fill="#2E2E2E" points="242.969,68.602 259.381,68.602 259.381,95.14 242.969,95.14 	"/>
	<polygon fill="#2E2E2E" points="271.416,79.271 281.813,79.271 281.813,144.103 271.416,144.103 	"/>
	<polygon fill="#2E2E2E" points="297.404,85.562 306.431,85.562 306.431,141.64 297.404,141.64 	"/>
	<polygon fill="#2E2E2E" points="322.57,87.753 337.344,87.753 337.344,145.744 322.57,145.744 	"/>
	<polygon fill="#2E2E2E" points="366.065,66.139 383.026,66.139 383.026,103.618 366.065,103.618 	"/>
	<polygon fill="#2E2E2E" points="385.488,97.051 391.504,97.051 391.504,145.198 385.488,145.198 	"/>
	<polygon fill="#2E2E2E" points="410.107,85.837 422.964,85.837 422.964,148.751 410.107,148.751 	"/>
	<polygon fill="#2E2E2E" points="457.977,89.941 471.656,89.941 471.656,123.315 457.977,123.315 	"/>
	<polygon fill="#2E2E2E" points="468.923,106.625 482.598,106.625 482.598,120.032 468.923,120.032 	"/>
	<polygon fill="#2E2E2E" points="486.702,98.423 498.189,98.423 498.189,144.377 486.702,144.377 	"/>
	<polygon fill="#2E2E2E" points="495.181,121.127 504.482,121.127 504.482,143.557 495.181,143.557 	"/>
	<polygon fill="#2E2E2E" points="520.075,83.65 535.119,83.65 535.119,147.935 520.075,147.935 	"/>
	<polygon fill="#2E2E2E" points="528.828,120.032 540.042,120.032 540.042,149.302 528.828,149.302 	"/>
	<polygon fill="#2E2E2E" points="549.911,102.19 559.047,102.19 559.047,147.548 549.911,147.548 	"/>
	<polygon fill="#2E2E2E" points="565.274,85.582 583.958,85.582 583.958,122.953 565.274,122.953 	"/>
	<polygon fill="#2E2E2E" points="390.412,125.501 398.618,125.501 398.618,148.751 390.412,148.751 	"/>
	<polygon fill="#2E2E2E" points="419.618,122.218 433.358,122.218 433.358,148.481 419.618,148.481 	"/>
	<polygon fill="#2E2E2E" points="424.877,110.458 432.265,110.458 432.265,129.059 424.877,129.059 	"/>
	<polygon fill="#2E2E2E" points="597.245,101.359 586.865,101.359 586.865,113.405 597.245,113.405 	"/>
	<polygon fill="#2E2E2E" points="595.999,125.858 605.965,125.858 605.965,149.94 595.999,149.94 	"/>
	<polygon fill="#2E2E2E" points="556.138,132.918 569.427,132.918 569.427,146.202 556.138,146.202 	"/>
	<polygon fill="#2E2E2E" points="304.405,118.104 323.755,118.104 323.755,148.552 304.405,148.552 	"/>
	<polygon fill="#2E2E2E" points="202.841,44.659 210.406,44.659 210.406,50.067 202.841,50.067 	"/>
	<polygon fill="#2E2E2E" points="209.758,45.312 212.246,45.312 212.246,48.875 209.758,48.875 	"/>
	<polygon fill="#2E2E2E" points="188.792,41.637 205.22,43.15 205.22,48.661 188.792,48.661 	"/>
	<polygon fill="#2E2E2E" points="211.92,33.638 211.597,33.638 211.597,47.687 211.92,47.687 	"/>
	<path fill="#2E2E2E" d="M211.767,34.412c-1.452,0.184-1.764,2.341-2.956,2.651v2.284c1.141-0.108,1.58-2.753,2.956-2.651V34.412
		L211.767,34.412z"/>
	<polygon fill="#2E2E2E" points="254.683,62.276 271.531,62.276 271.531,69.826 254.683,69.826 	"/>
	<polygon fill="#2E2E2E" points="253.145,66.461 273.073,66.461 273.073,73.939 253.145,73.939 	"/>
	<polygon fill="#2E2E2E" points="252.492,67.97 273.723,67.97 273.723,78.058 252.492,78.058 	"/>
	<polygon fill="#2E2E2E" points="251.944,75.998 274.271,75.998 274.271,145.668 251.944,145.668 	"/>
	<polygon fill="#2E2E2E" points="260.043,58.539 261.749,58.539 264.723,58.539 266.428,58.539 269.945,62.46 265.266,62.46 
		261.204,62.46 256.524,62.46 	"/>
	<polygon fill="#2E2E2E" points="266.127,57.377 266.504,57.377 266.504,58.86 266.127,58.86 	"/>
	<polygon fill="#2E2E2E" points="263.953,56.098 264.331,56.098 264.331,58.86 263.953,58.86 	"/>
	<polygon fill="#2E2E2E" points="262.126,57.377 262.503,57.377 262.503,58.86 262.126,58.86 	"/>
	<polygon fill="#2E2E2E" points="259.949,56.098 260.327,56.098 260.327,58.86 259.949,58.86 	"/>
	<polygon fill="#2E2E2E" points="247.072,77.732 253.379,77.732 253.379,81.336 247.072,81.336 	"/>
	<polygon fill="#2E2E2E" points="248.21,77.481 249.028,77.481 249.028,78.114 248.21,78.114 	"/>
	<polygon fill="#2E2E2E" points="250.922,77.166 252.243,77.166 252.243,77.92 250.922,77.92 	"/>
	<polygon fill="#2E2E2E" points="240.798,80.892 259.654,80.892 259.654,81.586 240.798,81.586 	"/>
	<polygon fill="#2E2E2E" points="241.588,82.662 258.865,82.662 258.865,146.315 241.588,146.315 	"/>
	<polygon fill="#2E2E2E" points="241.965,81.397 258.486,81.397 258.486,82.911 241.965,82.911 	"/>
	<polygon fill="#2E2E2E" points="7.35,110.983 28.662,110.983 28.662,149.837 7.35,149.837 	"/>
	<polygon fill="#2E2E2E" points="10.79,105.243 18.003,105.243 18.003,116.555 10.79,116.555 	"/>
	<polygon fill="#2E2E2E" points="47.579,105.182 66.67,105.182 66.67,150.822 47.579,150.822 	"/>
	<polygon fill="#2E2E2E" points="78.302,109.062 91.128,109.062 91.128,145.453 78.302,145.453 	"/>
	<polygon fill="#2E2E2E" points="124.236,104.586 137.36,104.586 137.36,146.942 124.236,146.942 	"/>
	<polygon fill="#2E2E2E" points="180.611,89.079 194.033,89.079 194.033,150.224 180.611,150.224 	"/>
	<polygon fill="#2E2E2E" points="168.382,110.254 175.84,110.254 175.84,147.242 168.382,147.242 	"/>
	<polygon fill="#2E2E2E" points="182.369,87.713 188.731,87.713 188.731,90.43 182.369,90.43 	"/>
	<polygon fill="#2E2E2E" points="216.12,72.711 233.891,72.711 233.891,146.661 216.12,146.661 	"/>
	<polygon fill="#2E2E2E" points="215.389,71.819 234.622,71.819 234.622,73.363 215.389,73.363 	"/>
	<polygon fill="#2E2E2E" points="220.958,69.851 229.052,69.851 229.052,72.976 220.958,72.976 	"/>
	<polygon fill="#2E2E2E" points="363.936,94.371 370.722,94.371 370.722,124.533 363.936,124.533 	"/>
	<polygon fill="#2E2E2E" points="368.459,72.421 388.533,72.421 388.533,146.764 368.459,146.764 	"/>
	<polygon fill="#2E2E2E" points="426.559,80.235 442.956,80.235 442.956,149.735 426.559,149.735 	"/>
	<polygon fill="#2E2E2E" points="429.632,76.055 442.956,76.055 442.956,149.735 429.632,149.735 	"/>
	<polygon fill="#2E2E2E" points="432.046,72.69 440.543,72.69 440.543,149.735 432.046,149.735 	"/>
	<polygon fill="#2E2E2E" points="462.06,115.928 476.337,115.928 476.337,145.804 462.06,145.804 	"/>
	<polygon fill="#2E2E2E" points="498.974,102.363 510.498,102.363 510.498,144.786 498.974,144.786 	"/>
	<polygon fill="#2E2E2E" points="501.626,101.038 507.028,101.038 507.028,102.568 501.626,102.568 	"/>
	<polygon fill="#2E2E2E" points="537.99,87.254 555.505,87.254 555.505,145.585 537.99,145.585 	"/>
	<polygon fill="#2E2E2E" points="542.412,85.215 554.826,85.215 554.826,89.635 542.412,89.635 	"/>
	<polygon fill="#2E2E2E" points="562.48,112.426 575.745,112.426 575.745,142.354 562.48,142.354 	"/>
	<polygon fill="#2E2E2E" points="592.408,104.092 602.271,104.092 602.271,146.947 592.408,146.947 	"/>
	<polygon fill="#2E2E2E" points="336.978,37.466 361.42,37.466 361.42,148.919 336.978,148.919 	"/>
	<polygon fill="#2E2E2E" points="338.215,35.04 359.383,35.04 359.383,41.871 338.215,41.871 	"/>
	<polygon fill="#2E2E2E" points="186.667,48.508 213.74,48.508 213.74,148.919 186.667,148.919 	"/>
	<polygon fill="#2E2E2E" points="223.143,83.91 244.656,83.91 244.656,148.919 223.143,148.919 	"/>
	<polygon fill="#2E2E2E" points="226.061,82.712 240.048,82.712 240.048,85.45 226.061,85.45 	"/>
	<polygon fill="#2E2E2E" points="228.37,81.769 239.482,81.769 239.482,83.986 228.37,83.986 	"/>
	<polygon fill="#2E2E2E" points="240.472,82.62 241.177,82.62 241.177,84.838 240.472,84.838 	"/>
	<polygon fill="#2E2E2E" points="231.616,80.591 239.197,80.591 239.197,82.243 231.616,82.243 	"/>
	<polygon fill="#2E2E2E" points="232.749,79.415 238.21,79.415 238.21,80.969 232.749,80.969 	"/>
	<polygon fill="#2E2E2E" points="236.09,75.734 235.527,75.734 235.527,79.837 236.09,79.837 	"/>
	<polygon fill="#2E2E2E" points="233.312,78.986 234.538,78.986 234.538,79.694 233.312,79.694 	"/>
	<polygon fill="#2E2E2E" points="276.679,55.022 302.694,55.022 302.694,145.668 276.679,145.668 	"/>
	<polygon fill="#2E2E2E" points="281.249,54.013 284.805,54.013 284.805,52.616 301.025,52.616 301.025,54.013 302.694,54.013 
		302.694,145.668 301.025,145.668 284.805,145.668 281.249,145.668 	"/>
	<polygon fill="#2E2E2E" points="290.315,51.893 294.042,51.893 294.042,53.849 290.315,53.849 	"/>
	<polygon fill="#2E2E2E" points="287.364,51.973 288.276,51.973 288.276,52.912 287.364,52.912 	"/>
	<polygon fill="#2E2E2E" points="297.062,52.126 298.186,52.126 298.186,53.381 297.062,53.381 	"/>
	<polygon fill="#2E2E2E" points="393.568,77.875 418.938,77.875 418.938,147.665 393.568,147.665 	"/>
	<polygon fill="#2E2E2E" points="394.507,73.017 417.999,73.017 417.999,140.805 394.507,140.805 	"/>
	<polygon fill="#2E2E2E" points="395.267,60.104 417.24,60.104 417.24,127.897 395.267,127.897 	"/>
	<polygon fill="#2E2E2E" points="399.886,57.24 412.621,57.24 412.621,125.027 399.886,125.027 	"/>
	<polygon fill="#2E2E2E" points="405.296,49.808 407.21,49.808 407.21,53.748 405.296,53.748 	"/>
	<polygon fill="#2E2E2E" points="400.17,56.603 405.296,52.086 407.21,52.086 412.339,56.603 412.339,58.381 400.17,58.381 	"/>
	<polygon fill="#2E2E2E" points="396.258,58.346 416.249,58.346 416.249,58.983 396.258,58.983 	"/>
	<polygon fill="#2E2E2E" points="395.679,58.004 397.304,58.004 397.304,60.935 395.679,60.935 	"/>
	<polygon fill="#2E2E2E" points="415.203,58.004 416.827,58.004 416.827,60.935 415.203,60.935 	"/>
	<polygon fill="#2E2E2E" points="445.458,77.641 464.982,77.641 464.982,147.665 445.458,147.665 	"/>
	<polygon fill="#2E2E2E" points="446.661,73.924 464.982,73.924 464.982,90.567 446.661,90.567 	"/>
	<polygon fill="#2E2E2E" points="446.661,72.487 463.716,72.487 463.716,89.13 446.661,89.13 	"/>
	<polygon fill="#2E2E2E" points="451.506,71.161 463.716,71.161 463.716,87.805 451.506,87.805 	"/>
	<polygon fill="#2E2E2E" points="446.661,71.161 447.601,71.161 447.601,87.805 446.661,87.805 	"/>
	<polygon fill="#2E2E2E" points="451.506,66.629 452.722,66.629 452.722,83.273 451.506,83.273 	"/>
	<polygon fill="#2E2E2E" points="455.429,66.629 457.86,66.629 457.86,83.273 455.429,83.273 	"/>
	<polygon fill="#2E2E2E" points="452.056,68.357 457.86,68.357 457.86,83.273 452.056,83.273 	"/>
	<polygon fill="#2E2E2E" points="474.411,110.799 496.119,110.799 496.119,147.665 474.411,147.665 	"/>
	<polygon fill="#2E2E2E" points="482.621,104.479 487.912,104.479 487.912,141.34 482.621,141.34 	"/>
	<polygon fill="#2E2E2E" points="477.296,108.271 482.621,105.142 487.912,105.142 493.237,108.271 493.237,145.132 
		477.296,145.132 	"/>
	<polygon fill="#2E2E2E" points="508.485,94.151 531.771,94.151 531.771,147.665 508.485,147.665 	"/>
	<polygon fill="#2E2E2E" points="509.515,93.402 530.74,93.402 530.74,96.292 509.515,96.292 	"/>
	<polygon fill="#2E2E2E" points="510.412,92.652 529.841,92.652 529.841,95.543 510.412,95.543 	"/>
	<polygon fill="#2E2E2E" points="511.388,92.127 516.038,91.301 524.217,91.301 528.867,92.127 528.867,95.018 524.217,95.018 
		516.038,95.018 511.388,95.018 	"/>
	<polygon fill="#2E2E2E" points="569.242,96.99 593.634,96.99 593.634,150.316 569.242,150.316 	"/>
	<polygon fill="#2E2E2E" points="34.846,118.502 89.56,118.502 89.56,148.919 34.846,148.919 	"/>
	<polygon fill="#2E2E2E" points="92.524,91.042 121.361,91.042 121.361,148.919 92.524,148.919 	"/>
	<polygon fill="#2E2E2E" points="96.672,87.882 116.226,87.882 116.226,97.76 96.672,97.76 	"/>
	<polygon fill="#2E2E2E" points="159.881,95.981 170.548,95.981 170.548,148.919 159.881,148.919 	"/>
	<polygon fill="#2E2E2E" points="160.786,95.15 169.182,95.15 169.182,96.695 160.786,96.695 	"/>
	<polygon fill="#2E2E2E" points="161.511,93.417 167.709,93.417 167.709,95.548 161.511,95.548 	"/>
	<polygon fill="#2E2E2E" points="129.263,69.907 154.745,69.907 154.745,148.919 129.263,148.919 	"/>
	<polygon fill="#2E2E2E" points="127.965,64.182 156.043,64.182 156.043,70.591 127.965,70.591 	"/>
	<polygon fill="#2E2E2E" points="135.387,63.193 144.474,63.193 144.474,65.365 135.387,65.365 	"/>
	<polygon fill="#2E2E2E" points="366.628,98.55 370.285,98.55 390.758,120.046 390.758,149 366.628,149 	"/>
	<polygon fill="#2E2E2E" points="364.551,128.086 366.977,125.354 380.477,125.354 380.477,128.086 380.477,149 366.977,149 
		364.551,149 	"/>
	<path fill="#2E2E2E" d="M319.821,23.17c9.496,0,17.245,0.326,17.245,0.732c0,0.402-7.749,0.731-17.245,0.731
		c-9.5,0-17.246-0.329-17.246-0.731C302.575,23.496,310.321,23.17,319.821,23.17L319.821,23.17z"/>
	<path fill="#2E2E2E" d="M319.724,17.398c5.997,0,10.886,2.163,10.886,4.816c0,2.654-4.889,4.813-10.886,4.813
		c-5.998,0-10.889-2.159-10.889-4.813C308.834,19.561,313.725,17.398,319.724,17.398L319.724,17.398z"/>
	<polygon fill="#2E2E2E" points="305.919,22.135 333.525,22.135 333.525,23.95 305.919,23.95 	"/>
	<polygon fill="#2E2E2E" points="306.827,24.177 311.824,24.177 327.622,24.177 332.618,24.177 330.89,26.965 329.347,26.965 
		310.097,26.965 308.554,26.965 	"/>
	<polygon fill="#2E2E2E" points="307.54,20.17 312.261,20.17 327.184,20.17 331.905,20.17 330.273,22.803 328.818,22.803 
		310.629,22.803 309.172,22.803 	"/>
	<path fill="#2E2E2E" d="M333.443,28.096c-2.966,0.933-7.902,1.545-13.47,1.545c-5.57,0-10.504-0.612-13.471-1.545v-0.82
		c1.161-0.368,2.63-0.683,4.317-0.933h18.307c1.689,0.25,3.156,0.565,4.317,0.933L333.443,28.096L333.443,28.096z"/>
	<path fill="#2E2E2E" d="M307.958,20.438c1.3,0,2.363,0.556,2.363,1.239s-1.063,1.236-2.363,1.236c-1.299,0-2.362-0.553-2.362-1.236
		S306.659,20.438,307.958,20.438L307.958,20.438z M307.946,20.84c1.04,0,1.888,0.446,1.888,0.992c0,0.548-0.848,0.992-1.888,0.992
		c-1.041,0-1.892-0.443-1.892-0.992C306.053,21.286,306.905,20.84,307.946,20.84L307.946,20.84z"/>
	<path fill="#2E2E2E" d="M331.486,20.438c1.302,0,2.362,0.556,2.362,1.239s-1.06,1.236-2.362,1.236c-1.3,0-2.36-0.553-2.36-1.236
		S330.187,20.438,331.486,20.438L331.486,20.438z M331.473,20.84c1.041,0,1.89,0.446,1.89,0.992c0,0.548-0.849,0.992-1.89,0.992
		c-1.04,0-1.889-0.443-1.889-0.992C329.584,21.286,330.434,20.84,331.473,20.84L331.473,20.84z"/>
	<polygon fill="#2E2E2E" points="315.604,16.26 323.839,16.26 323.839,18.078 315.604,18.078 	"/>
	<polygon fill="#2E2E2E" points="315.414,14.405 324.033,14.405 324.033,15.288 315.414,15.288 	"/>
	<polygon fill="#2E2E2E" points="314.297,15.019 325.148,15.019 325.148,15.633 323.839,16.439 315.604,16.439 314.297,15.633 	"/>
	<polygon fill="#2E2E2E" points="315.948,13.688 323.496,13.688 323.496,15.506 315.948,15.506 	"/>
	<polygon fill="#2E2E2E" points="321.464,12.715 322.346,12.715 323.064,13.752 321.464,13.752 	"/>
	<polygon fill="#2E2E2E" points="316.751,12.985 317.516,12.985 317.516,13.752 316.751,13.752 	"/>
	<polygon fill="#2E2E2E" points="318.651,12.024 320.797,12.024 320.797,13.752 318.651,13.752 	"/>
	<polygon fill="#2E2E2E" points="318.829,12.57 319.724,1.462 320.615,12.57 	"/>
	<polygon fill="#2E2E2E" points="313.691,27.526 317.68,59.498 317.687,59.574 317.687,59.646 317.478,72.915 317.478,72.961 
		317.47,73.021 308.919,143.256 306.783,143.007 315.324,72.834 315.53,59.618 311.555,27.786 	"/>
	<polygon fill="#2E2E2E" points="327.053,27.786 323.075,59.618 323.285,72.834 331.825,143.007 329.689,143.256 321.138,73.021 
		321.13,72.961 321.13,72.915 320.921,59.646 320.918,59.574 320.928,59.498 324.915,27.526 	"/>
	<polygon fill="#2E2E2E" points="319.061,143.134 319.061,28.872 321.214,28.872 321.214,143.134 	"/>
	<polygon fill="#2E2E2E" points="320.587,83.752 323.196,83.752 323.196,85.903 320.587,85.903 	"/>
	<polygon fill="#2E2E2E" points="320.587,92.413 324.504,92.413 324.504,94.569 320.587,94.569 	"/>
	<polygon fill="#2E2E2E" points="313.456,101.079 324.407,101.079 324.407,103.234 313.456,103.234 	"/>
	<polygon fill="#2E2E2E" points="320.587,109.744 324.605,109.744 324.605,111.896 320.587,111.896 	"/>
	<polygon fill="#2E2E2E" points="320.587,118.405 324.407,118.405 324.407,120.562 320.587,120.562 	"/>
	<polygon fill="#2E2E2E" points="307.378,124.436 312.161,124.436 327.285,124.436 332.067,124.436 330.416,127.102 
		328.937,127.102 310.507,127.102 309.031,127.102 	"/>
	<polygon fill="#2E2E2E" points="307.378,123.492 312.161,123.492 327.285,123.492 332.067,123.492 330.416,120.826 
		328.937,120.826 310.507,120.826 309.028,120.826 	"/>
	<polygon fill="#2E2E2E" points="308.465,123.237 330.981,123.237 330.981,125.277 308.465,125.277 	"/>
	<polygon fill="#2E2E2E" points="320.587,134.504 324.407,134.504 324.407,136.659 320.587,136.659 	"/>
	<polygon fill="#2E2E2E" points="317.519,28.673 321.925,28.673 321.925,143.134 317.519,143.134 	"/>
	<polygon fill="#2E2E2E" points="315.505,48.701 319.42,48.701 319.42,50.852 315.505,50.852 	"/>
	<polygon fill="#2E2E2E" points="315.505,76.32 319.42,76.32 319.42,78.471 315.505,78.471 	"/>
	<polygon fill="#2E2E2E" points="25.961,135.391 40.279,135.391 40.279,149.389 25.961,149.389 	"/>
	<polygon fill="#2E2E2E" points="28.535,137.965 42.856,137.965 42.856,149.389 28.535,149.389 	"/>
	<polygon fill="#2E2E2E" points="54.278,135.233 107.534,135.233 107.534,149.389 54.278,149.389 	"/>
	<polygon fill="#2E2E2E" points="142.45,123.004 166.424,123.004 166.424,149.389 142.45,149.389 	"/>
	<polygon fill="#2E2E2E" points="144.861,120.75 157.251,120.75 157.251,149.389 144.861,149.389 	"/>
	<polygon fill="#2E2E2E" points="174.305,136.68 197.315,136.68 197.315,149.389 174.305,149.389 	"/>
	<polygon fill="#2E2E2E" points="205.038,102.868 228.043,102.868 228.043,149.389 205.038,149.389 	"/>
	<polygon fill="#2E2E2E" points="238.973,118.12 258.932,118.12 258.932,149.389 238.973,149.389 	"/>
	<polygon fill="#2E2E2E" points="266.008,114.526 282.371,114.526 282.371,149.389 266.008,149.389 	"/>
	<polygon fill="#2E2E2E" points="287.466,131.349 307.138,131.349 307.138,149.389 287.466,149.389 	"/>
	<polygon fill="#2E2E2E" points="342.506,120.133 372.676,120.133 372.676,149.389 342.506,149.389 	"/>
	<polygon fill="#2E2E2E" points="350.211,136.512 380.38,136.512 380.38,149.389 350.211,149.389 	"/>
	<polygon fill="#2E2E2E" points="386.368,133.902 398.364,133.902 398.364,149.389 386.368,149.389 	"/>
	<polygon fill="#2E2E2E" points="400.991,113.278 414.35,113.278 414.35,149.389 400.991,149.389 	"/>
	<polygon fill="#2E2E2E" points="433.215,116.881 451.672,116.881 451.672,149.389 433.215,149.389 	"/>
	<polygon fill="#2E2E2E" points="480.746,137.69 492.426,137.69 492.426,149.389 480.746,149.389 	"/>
	<polygon fill="#2E2E2E" points="564.369,134.534 584.55,134.534 584.55,149.389 564.369,149.389 	"/>
	<polygon fill="#2E2E2E" points="460.353,136.369 471.185,136.369 471.185,148.002 460.353,148.002 	"/>
	<polygon fill="#2E2E2E" points="472.788,137.373 477.4,137.373 477.4,144.392 472.788,144.392 	"/>
	<polygon fill="#2E2E2E" points="497.662,133.963 505.283,133.963 505.283,143.19 497.662,143.19 	"/>
	<polygon fill="#2E2E2E" points="503.878,136.772 510.498,136.772 510.498,143.99 503.878,143.99 	"/>
	<polygon fill="#2E2E2E" points="529.955,134.564 535.771,134.564 535.771,146.401 529.955,146.401 	"/>
	<polygon fill="#2E2E2E" points="538.982,137.776 550.013,137.776 550.013,146.6 538.982,146.6 	"/>
	<polygon fill="#2E2E2E" points="552.222,133.764 561.248,133.764 561.248,145.397 552.222,145.397 	"/>
	<polygon fill="#2E2E2E" points="596.347,137.776 606.177,137.776 606.177,147.003 596.347,147.003 	"/>
	<polygon fill="#2E2E2E" points="116.87,135.039 125.965,135.039 125.965,144.816 116.87,144.816 	"/>
	<path fill="#2E2E2E" d="M16.275,140.396c1.351-0.611,2.844-0.953,4.42-0.953c2.775,0,5.306,1.065,7.218,2.803
		c1.103-0.831,2.464-1.32,3.938-1.32c1.094,0,2.12,0.265,3.026,0.745c1.119-0.455,2.348-0.704,3.627-0.704
		c2.638,0,5.038,1.065,6.797,2.789c1.744-1.657,4.094-2.671,6.678-2.671c2.595,0,4.96,1.035,6.706,2.697c0.073,0,0.135,0,0.206,0
		c0.342,0,0.671,0.015,1,0.05c1.185-1.228,2.854-1.992,4.687-1.992c1.834,0,3.494,0.759,4.69,1.987
		c1.067-0.408,2.234-0.632,3.445-0.632c1.922,0,3.712,0.565,5.223,1.525c1.142-1.902,3.232-3.181,5.611-3.181
		c1.623,0,3.117,0.597,4.264,1.59c1.391-0.781,3.002-1.223,4.713-1.223c1.328,0,2.6,0.271,3.764,0.765
		c0.788-0.337,1.653-0.52,2.555-0.52c2.11,0,3.992,1.009,5.193,2.57c1.729-2.677,4.754-4.451,8.167-4.451
		c2.717,0,5.169,1.122,6.938,2.921c0.729-0.275,1.508-0.423,2.335-0.423c1.004,0,1.962,0.224,2.806,0.632
		c1.731-1.58,4.035-2.554,6.559-2.554c1.963,0,3.803,0.597,5.337,1.611c0.622-0.122,1.275-0.189,1.93-0.189
		c2.26,0,4.35,0.78,5.997,2.075c1.182-1.163,2.803-1.892,4.593-1.892c1.045,0,2.024,0.245,2.898,0.683
		c1.638-1.249,3.675-1.988,5.884-1.988c2.125,0,4.091,0.679,5.699,1.85c0.556-0.157,1.132-0.229,1.731-0.229
		c1.348,0,2.597,0.403,3.637,1.106c0.502-0.122,1.025-0.194,1.568-0.194c1.368,0,2.637,0.424,3.693,1.142
		c1.162-1.788,3.19-2.981,5.48-2.981c1.87,0,3.555,0.795,4.751,2.054c0.536-0.137,1.096-0.215,1.671-0.215
		c0.48,0,0.954,0.047,1.403,0.148c1.531-0.989,3.344-1.56,5.283-1.56c1.858,0,3.594,0.525,5.078,1.438
		c1.08-0.785,2.403-1.254,3.84-1.254c1.677,0,3.214,0.637,4.374,1.688c1.024-0.678,2.258-1.07,3.573-1.07
		c1.448,0,2.783,0.469,3.859,1.258c1.753-1.687,4.144-2.737,6.759-2.737c3.976,0,7.401,2.411,8.905,5.837
		c0.778-0.638,1.636-1.153,2.574-1.53c0.985-2.38,3.329-4.057,6.045-4.057c1.066,0,2.07,0.259,2.952,0.708
		c1.756-1.707,4.149-2.757,6.783-2.757c2.581,0,4.932,1.015,6.677,2.661c0.037,0,0.074,0,0.102,0c2.057,0,3.882,0.954,5.088,2.437
		c1.19-1.666,3.132-2.737,5.315-2.737c0.833,0,1.626,0.153,2.355,0.438c1.761-1.728,4.165-2.798,6.82-2.798
		c3.308,0,6.245,1.667,8.003,4.21c1.175-1.152,2.783-1.851,4.542-1.851c0.622,0,1.217,0.087,1.784,0.25
		c1.565-1.081,3.461-1.707,5.492-1.707c1.996,0,3.851,0.606,5.393,1.636c1.589-1.112,3.511-1.769,5.587-1.769
		c2.452,0,4.695,0.912,6.415,2.431c0.609-0.188,1.249-0.29,1.909-0.29c1.138,0,2.212,0.295,3.14,0.81
		c1.601-1.163,3.571-1.846,5.689-1.846c2.509,0,4.794,0.959,6.525,2.523c1.552-1.172,3.476-1.891,5.547-1.952
		c0.971-0.565,2.098-0.897,3.302-0.897c1.317,0,2.546,0.403,3.572,1.075c1.633-1.223,3.651-1.947,5.828-1.947
		c2.578,0,4.928,1.009,6.671,2.666c0.872-0.438,1.851-0.683,2.888-0.683c1.906,0,3.626,0.825,4.822,2.132
		c1.199-1.29,2.905-2.106,4.8-2.106c2.194,0,4.14,1.091,5.332,2.748c0.659-0.208,1.347-0.341,2.064-0.413
		c1.179-1.769,3.186-2.936,5.457-2.936c1.449,0,2.788,0.473,3.879,1.274c1.661-1.324,3.764-2.11,6.046-2.11
		c2.447,0,4.676,0.903,6.394,2.406c0.69-0.245,1.432-0.377,2.194-0.377c2.458,0,4.591,1.356,5.716,3.364
		c0.205-0.015,0.417-0.02,0.626-0.02c0.129,0,0.25,0,0.381,0.005c1.191-1.693,3.156-2.789,5.363-2.789
		c0.797,0,1.561,0.138,2.261,0.403c1.614-1.193,3.604-1.891,5.753-1.891c2.142,0,4.133,0.693,5.736,1.875
		c0.705-0.25,1.456-0.387,2.238-0.387c2.055,0,3.901,0.954,5.103,2.447c0.28-0.025,0.57-0.03,0.866-0.03
		c0.276,0,0.536,0.005,0.798,0.03c1.2-1.387,2.975-2.263,4.95-2.263c1.01,0,1.955,0.234,2.813,0.642
		c1.726-1.555,4.004-2.503,6.499-2.503c1.54,0,3.002,0.361,4.297,1.004c0.738-0.286,1.541-0.444,2.373-0.444
		c1.942,0,3.694,0.857,4.889,2.203c0.823-0.225,1.686-0.342,2.578-0.342c0.497,0,0.985,0.031,1.474,0.102
		c1.192-1.427,2.996-2.334,5.007-2.334c0.687,0,1.359,0.106,1.979,0.301c1.403-0.786,3.018-1.234,4.733-1.234
		c1.772,0,3.426,0.473,4.852,1.304c0.056,0,0.101,0,0.139,0c1.486,0,2.847,0.495,3.95,1.32c1.044-0.708,2.311-1.136,3.678-1.136
		c1.076,0,2.096,0.265,2.991,0.724c0.981-0.581,2.118-0.908,3.335-0.908c0.485,0,0.958,0.051,1.418,0.159
		c1.757-1.712,4.146-2.763,6.78-2.763c1.44,0,2.804,0.306,4.03,0.877c1.03-0.668,2.254-1.07,3.571-1.07
		c1.225,0,2.37,0.347,3.354,0.932c1.426-0.82,3.078-1.299,4.852-1.299c2.225,0,4.292,0.764,5.935,2.038
		c0.828,0.19,1.592,0.541,2.265,1.02c1.006-0.637,2.207-1.009,3.487-1.009c1.372,0,2.644,0.423,3.705,1.146
		c0.537-0.137,1.101-0.219,1.687-0.219c0.397,0,0.789,0.041,1.174,0.107c1.677-1.345,3.792-2.151,6.097-2.151
		c2.359,0,4.516,0.851,6.206,2.248c0.151-0.01,0.307-0.015,0.46-0.015c2.378,0,4.473,1.279,5.616,3.187
		c0.506-0.113,1.04-0.174,1.571-0.199c0.872-2.6,3.32-4.476,6.202-4.476c0.906,0,1.766,0.178,2.551,0.515
		c1.594-1.142,3.545-1.825,5.653-1.825c3.775,0,7.055,2.177,8.667,5.332c1.178-1.749,3.179-2.906,5.444-2.906
		c1.193,0,2.319,0.32,3.288,0.886c1.769-1.81,4.236-2.936,6.957-2.936c3.677,0,6.887,2.059,8.536,5.082
		c1.158-1.03,2.684-1.656,4.356-1.656c2.002,0,3.794,0.907,4.994,2.329v10.277H0.396v-13.132c1.891-1.906,4.465-3.099,7.325-3.191
		c1.101-0.831,2.462-1.32,3.938-1.32C13.461,138.48,15.095,139.208,16.275,140.396L16.275,140.396z"/>
	<path fill="#2E2E2E" d="M7.88,142.18c2.755,0,5.148,1.596,6.308,3.91c2.379-2.023,5.921-2.288,8.598-0.428
		c0.199,0.138,0.374,0.275,0.557,0.423c-0.165,0.204-0.318,0.413-0.464,0.627c-1.172-0.867-2.619-1.376-4.177-1.376
		c-1.773,0-3.4,0.663-4.641,1.754c-1.236-2.039-3.484-3.412-6.038-3.412c-3.854,0-7.014,3.141-7.039,6.995
		c-0.102-0.469-0.148-0.953-0.148-1.453C0.835,145.341,4,142.18,7.88,142.18L7.88,142.18z M27.021,143.756
		c2.146-0.892,4.692-0.714,6.733,0.703c0.995,0.689,1.751,1.591,2.258,2.595c2.215-1.05,4.909-0.922,7.06,0.561
		c0.176,0.123,0.347,0.255,0.515,0.392c0.174-0.408,0.391-0.795,0.653-1.173c2.206-3.179,6.617-3.992,9.803-1.774
		c0.767,0.525,1.391,1.193,1.873,1.917c-0.141,0.148-0.278,0.29-0.406,0.438c-1.289-1.539-3.237-2.528-5.4-2.528
		c-3.163,0-5.844,2.09-6.734,4.96c-1.389-1.473-3.367-2.405-5.548-2.405c-0.898,0-1.748,0.153-2.554,0.443
		c-1.061-2.553-3.576-4.353-6.504-4.353C28.163,143.532,27.582,143.607,27.021,143.756L27.021,143.756z M57.833,145.656
		c2.358-1.753,5.687-1.906,8.23-0.142c0.298,0.198,0.566,0.418,0.816,0.657c1.687-1.392,3.93-1.916,6.037-1.452
		c-0.025,0-0.048,0-0.083,0c-2.58,0-4.863,1.356-6.163,3.379c-1.272-1.876-3.416-3.104-5.849-3.104
		C59.758,144.994,58.743,145.223,57.833,145.656L57.833,145.656z M78.532,145.596c2.365-2.254,6.081-2.625,8.875-0.688
		c0.456,0.316,0.872,0.683,1.234,1.091c2.225-3.115,6.581-3.874,9.736-1.692c0.776,0.536,1.41,1.203,1.887,1.947
		c1.57-0.169,3.197,0.194,4.598,1.127c-0.179,0.311-0.335,0.642-0.474,0.989c-1.027-0.591-2.211-0.927-3.477-0.927
		c-0.286,0-0.561,0.015-0.831,0.046c-1.229-2.09-3.494-3.507-6.089-3.507c-2.505,0-4.712,1.325-5.962,3.308
		c-1.486-1.565-3.578-2.529-5.89-2.529C80.841,144.76,79.615,145.06,78.532,145.596L78.532,145.596z M105.546,146.396
		c0.138-0.26,0.289-0.51,0.452-0.759c2.217-3.196,6.627-3.987,9.814-1.78c0.768,0.535,1.393,1.189,1.873,1.923
		c2.106-0.806,4.56-0.592,6.547,0.785c0.265,0.188,0.509,0.382,0.744,0.597c0.035-0.062,0.081-0.112,0.117-0.174
		c2.212-3.191,6.618-3.981,9.807-1.779c0.864,0.601,1.556,1.361,2.052,2.212c2.2-1.753,5.322-2.05,7.842-0.627
		c2.304-2.741,6.357-3.343,9.365-1.29c2.37-1.901,5.801-2.105,8.416-0.295c0.474,0.332,0.902,0.713,1.265,1.126
		c-1.26-1.156-2.932-1.87-4.767-1.87c-1.745,0-3.341,0.637-4.572,1.697c-1.086-0.683-2.36-1.076-3.727-1.076
		c-2.472,0-4.653,1.296-5.91,3.227c-1.141-0.8-2.538-1.28-4.039-1.28c-1.3,0-2.526,0.357-3.569,0.969
		c-1.264-1.876-3.415-3.115-5.846-3.115c-2.439,0-4.599,1.254-5.873,3.161c-1.264-1.035-2.88-1.657-4.639-1.657
		c-1.382,0-2.671,0.388-3.774,1.051c-1.206-2.151-3.512-3.61-6.15-3.61C108.798,143.832,106.839,144.825,105.546,146.396
		L105.546,146.396z M163.926,146.417c2.314-1.382,5.317-1.382,7.659,0.239c0.674,0.47,1.237,1.025,1.688,1.652
		c1.799-2.131,4.503-3.166,7.154-2.926c-3.043,0.107-5.695,1.815-7.134,4.302c-1.17-2.268-3.545-3.833-6.268-3.833
		c-1.071,0-2.085,0.239-2.992,0.668C164.003,146.483,163.962,146.452,163.926,146.417L163.926,146.417z M185.081,146.544
		c2.345-2.538,6.273-3.033,9.196-1.009c0.082,0.051,0.169,0.118,0.25,0.179c-1.014-0.571-2.192-0.897-3.441-0.897
		c-2.044,0-3.89,0.876-5.179,2.274C185.647,146.896,185.361,146.712,185.081,146.544L185.081,146.544z M195.447,146.33
		c1.82-0.795,3.938-0.821,5.804,0.041c2.575-1.121,5.663-0.933,8.131,0.786c0.652,0.439,1.208,0.973,1.687,1.544
		c-1.445-1.31-3.354-2.11-5.449-2.11c-1.443,0-2.799,0.377-3.971,1.044c-1.071-0.647-2.317-1.014-3.65-1.014
		c-0.663,0-1.31,0.087-1.927,0.27C195.87,146.692,195.669,146.508,195.447,146.33L195.447,146.33z M212.333,150.163
		c0.219-1.101,0.652-2.182,1.341-3.15c2.622-3.798,7.845-4.736,11.64-2.11c1.705,1.177,2.831,2.895,3.321,4.771
		c2.515-3.379,7.183-4.338,10.815-2.294c0.231-0.973,0.649-1.917,1.251-2.789c2.628-3.782,7.855-4.726,11.643-2.105
		c1.565,1.081,2.651,2.615,3.191,4.313c-1.226-2.926-4.121-4.996-7.49-4.996c-4.313,0-7.859,3.4-8.087,7.661
		c-1.443-1.294-3.344-2.079-5.43-2.079c-2.621,0-4.957,1.249-6.443,3.19c-0.81-3.629-4.06-6.352-7.914-6.352
		c-3.724,0-6.874,2.534-7.824,5.955C212.343,150.179,212.338,150.169,212.333,150.163L212.333,150.163z M256.001,148.323
		c0.913-0.647,1.97-1.06,3.056-1.233c0.025-0.031,0.051-0.067,0.071-0.103c1.963-2.819,5.632-3.778,8.661-2.421
		c-0.025,0.03-0.054,0.066-0.092,0.097c-0.469-0.087-0.961-0.138-1.46-0.138c-2.644,0-5.001,1.279-6.487,3.247
		c-1.331,0.123-2.575,0.561-3.637,1.249C256.086,148.787,256.044,148.552,256.001,148.323L256.001,148.323z M269.642,143.077
		c2.373-2.176,6.035-2.513,8.789-0.606c1.755,1.223,2.783,3.099,2.993,5.083c-1.074-3.237-4.122-5.576-7.708-5.576
		C272.236,141.978,270.838,142.385,269.642,143.077L269.642,143.077z M608.466,146.253c0.808,0.546,1.458,1.249,1.943,2.024
		c-1.5-1.249-3.43-2.004-5.519-2.004c-2.177,0-4.164,0.8-5.684,2.131c-0.992-3.685-4.364-6.397-8.344-6.397
		c-1.075,0-2.096,0.188-3.049,0.545c2.734-1.621,6.278-1.616,9.058,0.316c1.407,0.969,2.426,2.31,3.01,3.803
		C602.256,144.653,605.787,144.388,608.466,146.253L608.466,146.253z M526.189,143.496c1.806-0.352,3.746-0.006,5.367,1.122
		c0.283,0.188,0.543,0.397,0.788,0.632c2.581-2.228,6.344-2.692,9.406-1.056c-0.676-0.162-1.393-0.259-2.127-0.259
		c-2.999,0-5.65,1.533-7.199,3.869C531.132,145.535,528.858,143.904,526.189,143.496L526.189,143.496z M545.265,143.919
		c1.851-0.408,3.859-0.077,5.529,1.09c0.816,0.555,1.467,1.259,1.959,2.044c0.758-0.198,1.533-0.29,2.323-0.27
		c0.094-0.184,0.208-0.357,0.333-0.53c1.461-2.11,3.872-3.176,6.265-3.012c-2.79,0.505-5.127,2.355-6.297,4.853
		c-1.137,0.005-2.227,0.239-3.225,0.652C550.871,146.12,548.29,144.224,545.265,143.919L545.265,143.919z M566.493,141.92
		c2.621-1.239,5.81-1.085,8.353,0.673c1.228,0.857,2.166,1.994,2.769,3.262c1.883-2.267,4.955-3.089,7.668-2.186
		c-0.269-0.02-0.538-0.036-0.825-0.036c-3.025,0-5.696,1.565-7.238,3.935c-1.12-3.481-4.399-6.015-8.243-6.015
		C568.118,141.553,567.281,141.68,566.493,141.92L566.493,141.92z M282.618,148.777c1.861-2.013,4.731-2.727,7.298-1.912
		c1.633-2.171,4.315-3.134,6.859-2.685c-2.789,0.111-5.22,1.641-6.597,3.879c-0.958-0.398-2.013-0.623-3.115-0.623
		C285.424,147.436,283.893,147.93,282.618,148.777L282.618,148.777z M299.617,143.562c2.802-2.044,6.713-2.217,9.714-0.127
		c0.997,0.687,1.792,1.554,2.384,2.522c1.517-0.142,3.083,0.118,4.508,0.821c2.327-2.396,6.106-2.865,8.97-0.964
		c-0.827-0.28-1.705-0.428-2.618-0.428c-2.558,0-4.847,1.193-6.342,3.059c-1.154-0.642-2.49-1.01-3.907-1.01
		c-0.635,0-1.252,0.077-1.844,0.215c-1.259-2.849-4.116-4.858-7.426-4.858C301.831,142.792,300.664,143.068,299.617,143.562
		L299.617,143.562z M329.258,145.56c2.608-1.203,5.765-1.035,8.288,0.714c0.209,0.143,0.411,0.296,0.599,0.449
		c-0.229,0.495-0.405,1.005-0.53,1.55c-1.49-1.82-3.752-2.982-6.272-2.982C330.62,145.29,329.926,145.387,329.258,145.56
		L329.258,145.56z M342.837,142.456c2.653-1.321,5.933-1.203,8.534,0.596c2.184,1.514,3.425,3.91,3.584,6.392
		c2.789-2.916,7.39-3.466,10.804-1.091c0.114,0.076,0.232,0.163,0.342,0.244c2.098-2.273,5.477-2.899,8.265-1.544
		c1.289-1.707,3.221-2.671,5.228-2.778c-2.156,0.709-3.939,2.253-4.972,4.246c-1.019-0.433-2.145-0.673-3.325-0.673
		c-1.994,0-3.826,0.688-5.298,1.83c-1.483-1.203-3.368-1.916-5.412-1.916c-2.921,0-5.505,1.452-7.076,3.679
		c0.074-0.433,0.108-0.877,0.108-1.33c0-4.46-3.641-8.104-8.109-8.104C344.58,142.008,343.672,142.17,342.837,142.456
		L342.837,142.456z M383.35,143.419c2.584-1.137,5.683-0.948,8.162,0.769c0.62,0.433,1.156,0.923,1.622,1.473
		c2.259-1.203,5.093-1.136,7.336,0.419c0.581,0.398,1.082,0.872,1.498,1.402c-1.325-0.826-2.892-1.31-4.568-1.31
		c-1.832,0-3.54,0.581-4.939,1.555c-1.48-2.651-4.31-4.451-7.546-4.451C384.38,143.275,383.861,143.327,383.35,143.419
		L383.35,143.419z M408.931,149.552c0.229-0.536,0.509-1.051,0.85-1.545c2.398-3.461,6.963-4.557,10.626-2.717
		c-0.729-0.205-1.491-0.311-2.283-0.311c-3.663,0-6.806,2.3-8.066,5.531C409.711,150.158,409.333,149.837,408.931,149.552
		L408.931,149.552z M423.642,145.886c1.766-0.315,3.653,0.041,5.228,1.147c0.563,0.378,1.036,0.831,1.448,1.331
		c2.158-2.61,5.918-3.313,8.874-1.662c-0.497-0.081-1.004-0.133-1.531-0.133c-3.185,0-5.978,1.739-7.476,4.323
		C429.001,148.278,426.566,146.34,423.642,145.886L423.642,145.886z M440.261,146.881c2.206-2.365,5.575-3.222,8.596-2.294
		c2.22-1.066,4.929-0.948,7.097,0.55c0.555,0.387,1.038,0.836,1.446,1.341c-0.021,0-0.042,0-0.061,0
		c-1.416-1.01-3.133-1.591-5-1.591c-1.362,0-2.661,0.311-3.811,0.882c-0.966-0.382-2.024-0.591-3.131-0.591
		C443.48,145.178,441.698,145.81,440.261,146.881L440.261,146.881z M458.683,146.641c0.913-0.162,1.845-0.137,2.751,0.061
		c1.818-2.421,4.938-3.369,7.717-2.513c-0.084,0-0.16,0-0.25,0c-2.938,0-5.549,1.479-7.114,3.737
		C460.864,147.309,459.812,146.86,458.683,146.641L458.683,146.641z M472.856,143.756c2.51-0.984,5.447-0.734,7.815,0.902
		c0.962,0.668,1.737,1.509,2.324,2.438c2.62-1.219,5.798-1.066,8.33,0.687c0.345,0.24,0.66,0.495,0.951,0.765
		c-1.407-1.004-3.135-1.601-4.998-1.601c-1.936,0-3.723,0.642-5.159,1.717c-1.373-2.966-4.379-5.031-7.852-5.031
		C473.787,143.633,473.313,143.674,472.856,143.756L472.856,143.756z M494.729,147.232c0.243-0.754,0.607-1.473,1.08-2.156
		c2.625-3.782,7.857-4.736,11.647-2.111c0.275,0.199,0.548,0.414,0.802,0.633c2.028-2.141,5.211-2.779,7.903-1.616
		c-0.391-0.056-0.799-0.081-1.208-0.081c-2.746,0-5.198,1.284-6.782,3.287c-1.553-1.447-3.63-2.345-5.912-2.345
		C499.044,142.842,496.222,144.622,494.729,147.232L494.729,147.232z"/>
</g>
</svg>
